<svg version="1" xmlns="http://www.w3.org/2000/svg" width="682.667" height="682.667" viewBox="0 0 512 512"><path d="M238.5 6.1C161.2 11 88.4 53.3 45.8 118.1c-20.5 31.1-32.9 63.7-39.5 103.4-2.5 15.6-2.5 55.4 0 71 7.9 47.7 24.4 85.7 53 121.9 21.9 27.7 52.1 51.9 85.1 68.1 39.4 19.3 82.3 28 125.9 25.4 99.7-5.9 185.2-69 220.9-162.9 4.9-12.8 11-36.5 13.4-52 2.6-16.3 2.6-55.7 0-72-5.3-33.9-16.8-66-33.5-93.5-19.9-32.8-44.5-58.6-75.7-79.4-30.8-20.6-63-33.2-100.8-39.6-8.1-1.4-37.3-3.7-42.1-3.3-1.1 0-7.4.4-14 .9zM280 22c5.2.5 13.7 1.7 18.8 2.6 9 1.6 9.4 1.8 10.5 4.8.6 1.7 8.6 26 17.8 54.1l16.8 51 57 .3 56.9.2 2 3.3c4.4 7 12.3 23.4 16.1 33 6.7 17.3 11.7 37.3 14.6 58.8l.6 4.6-46.6 33.8c-25.6 18.6-46.5 34.3-46.5 34.8 0 .6 7.9 25 17.5 54.3 9.6 29.3 17.5 53.9 17.5 54.7 0 1.9-21.6 22.7-32 30.8-4.7 3.7-12.4 9.2-17.1 12.2-10.1 6.6-30.9 17.7-33.1 17.7-.9 0-20-13.3-42.5-29.6l-40.8-29.5-.3-4.5c-.2-2.9.1-4.4.9-4.4.6 0 5.9-.7 11.7-1.6 35.2-5.2 56.7-22.9 64.2-52.9 2.9-11.4 4.2-29.2 3-41.4-1.9-20.4-6.5-31.6-17.5-42.7-9.2-9.3-17.3-13.9-41.8-23.9l-20.2-8.2-.3-37.2-.2-37.2 2.8 1.5c8 4.1 12.6 13 14.4 27.8l1.1 8.8h56l-.7-10.9c-2.3-38.2-21.4-60.5-58.3-68-5.6-1.2-11.3-2.1-12.7-2.1H267V89h-26v27.8l-5.7.7c-14.7 1.8-32.7 9.3-43 17.7-15.6 13-24.6 32.6-26 56.8-1.4 25.6 5.4 46.6 20 61.8 9.6 10 21.5 16.8 42.4 24.3l12.3 4.4V362l-3.6-1.5c-12.3-5.1-17.2-14.5-18.1-34.7l-.6-11.8h-56l.6 16.2c.6 18.5 2.4 26.7 8.2 38.5 6.3 12.7 19 23.4 34.3 29 7.4 2.7 20.5 5.7 29.5 6.8l5.7.6v11.8l-32.7 23.7c-18.1 13.1-35.9 26-39.7 28.8l-6.8 4.9-12.4-6.2c-22.6-11.4-44.7-27.6-62.7-45.9l-7.9-7.9L97 358.5c10-30.6 17.8-56 17.4-56.4-.7-.6-90-65.7-93.5-68.1-1.2-.8 2.8-25.2 6.1-37.6 5.1-19.1 15.4-43.8 24.2-58.1l2-3.3 58-.2 58.1-.3L186.6 81c9.6-29.4 18.1-54 18.9-54.6 1.2-.9 17.9-3.7 28.5-4.7 8-.8 37.2-.6 46 .3zm-39 169.1v31l-3.1-1.8c-15.1-8.8-20.7-34.2-10.9-49.7 2.6-4 10.8-10.6 13.2-10.6.4 0 .8 14 .8 31.1zm38.2 110.7c2.2 2.4 5.2 6.9 6.6 10 2.5 5.2 2.7 6.8 2.7 17.7 0 10.7-.3 12.5-2.4 16.5-3 5.8-7.6 10.7-12.3 13.1-7.2 3.7-6.8 5.7-6.8-32.2v-34l4.1 2.3c2.2 1.2 5.9 4.2 8.1 6.6z"/></svg>