<svg xmlns="http://www.w3.org/2000/svg" version="1.0" viewBox="0 0 480 480">
  <path d="M87.8 68c-9.4 1.2-17.1 3.6-25.9 8.1-15.2 7.9-26.6 19.8-34 35.5-7.8 16.5-7.4 9.1-7.4 127.9 0 119.9-.4 113.5 8 130.3 8.1 16.1 19.9 27.7 36.1 35.3 16.3 7.7 11.4 7.4 108.9 7.4h87l7.9-2.3c27-7.6 46.9-27.5 54.8-54.8l2.3-7.9v-215l-2.3-8c-7.8-27.2-27.9-47.2-54.9-54.7-7.7-2.2-8.8-2.2-90.8-2.4-45.6-.1-86 .2-89.7.6z"/>
  <path d="M316.2 75.2c13 12.9 21.2 26.8 26.4 44.8 1.8 6.1 1.9 12.5 2.2 115.5.2 78.5 0 111.1-.8 116.3-3.2 20.5-14.8 41.8-30.4 55.8l-6.1 5.5 44.5-.4c48.6-.4 48.8-.4 62.7-6.7 20.6-9.3 36.1-27.5 42.5-49.7l2.3-7.8V240c0-102.1-.1-108.9-1.8-114.9-7.7-27.2-27.3-47.2-53.9-55.3-7-2.1-9.3-2.2-51.6-2.6l-44.3-.3 8.3 8.3z"/>
</svg>
