<svg version="1" xmlns="http://www.w3.org/2000/svg" width="682.667" height="682.667" viewBox="0 0 512 512"><path d="M232 1c-49.1 4.7-98.1 24.7-136.5 55.7-12.9 10.4-34 32.1-43.3 44.5-27.7 37-44.3 77.6-50.4 123.8-1.6 12.3-1.6 50.9 0 62.5 4.2 29.9 11.9 55 24.7 81 14.2 28.9 28.3 48.3 51.6 71 40.6 39.5 89.6 63.1 146.9 70.7 12.3 1.6 50.9 1.6 62.5 0 29.9-4.2 55-11.9 81-24.7 28.9-14.2 48.3-28.3 71-51.6 39.5-40.6 63.1-89.6 70.7-146.9 1.6-12.3 1.6-50.9 0-62.5-4.2-29.9-11.9-55-24.7-81-14.2-28.9-28.3-48.3-51.6-71C393.6 33.3 343.9 9.3 288 2 276.5.5 243.7-.1 232 1zm52.1 51.6c54 7.5 103.3 36.5 135.9 79.9 21.1 28.2 34.5 60.6 39.5 95.6 1.9 13.8 1.9 41.8-.1 56-11.4 81.9-71.3 149.5-151 170.4-22.6 6-54.3 8.2-76.4 5.4-69.1-8.5-128.6-50.3-159.5-111.9-20.7-41.3-26.8-88.6-17.3-134.5 4.7-22.9 16.5-51.2 29.3-70.5 33.1-49.5 84.3-81.9 142.8-90.4 13.1-1.9 43.1-1.9 56.8 0z"/><path d="M248 123.9v15.9l-7.2 1.2c-19.8 3.3-33.8 9.9-45.4 21.5-12.3 12.1-17.8 24.6-19 43-1.8 24.8 7.9 42.2 29.8 53.5 7.8 4.1 39 15 42.9 15 1.8 0 1.9 1.1 1.9 27.6v27.7l-5.5-.7c-12.9-1.5-38.9-11.8-51.7-20.4l-7.7-5.2-9.7 18.7c-11.2 21.5-11.6 18.2 3.6 26.8 17.3 9.7 37.2 16.4 57.1 19.2l11.9 1.6V404h19v-34.7l8.2-.8c11.8-1 26-4.8 35.8-9.6 15.6-7.7 27.3-21.9 31.5-38.4 2-7.9 2-27.2 0-35-3.7-13.9-13.7-26.3-27.6-34.2-7.6-4.3-26.8-11.3-42.1-15.3l-8.8-2.3v-55l5 .6c11.2 1.3 37.6 12.1 45.1 18.4l2.7 2.3 3-5.2c6.5-11.5 16.2-29.6 16.2-30.1 0-.3-3.6-2.6-8-5.2-16.7-9.8-34.9-16.3-52.5-18.8l-9-1.2-.3-15.8-.3-15.7H248v15.9zm3 80.6V230l-7.2-2.6c-16.7-5.9-22.8-12.5-22.8-24.5 0-13 11.6-23.5 26.3-23.8l3.7-.1v25.5zm31.6 81.5c8.7 4.2 13.7 9.3 15.3 15.5 3.3 13.2-4 23.5-18.9 26.9-3.8.9-8.5 1.6-10.4 1.6H265v-50.9l5.5 1.9c3 1 8.4 3.3 12.1 5z"/></svg>