<svg version="1.0" xmlns="http://www.w3.org/2000/svg" viewBox="0 0 700 700"><path d="M332 1.1C174.3 8.1 39 124.2 7.5 279.5 2.2 305.8.6 321.9.6 350c0 32.6 2.6 54.5 10 84.7 19.7 80.8 69.5 153.2 139.1 202.2 47.6 33.5 102.6 54.1 163.8 61.3 14.4 1.6 58.6 1.6 73.5-.1 51.1-5.8 100.2-22.2 142.6-47.8 71.7-43.2 125.9-110.6 151.9-188.6 44.2-133 6.4-277.4-97-371C515.5 28.3 427-3.1 332 1.1zm53.2 138.1.3 22.3 11 .8c25.6 1.7 63.7 7.6 79.3 12.2l5.2 1.6V210c0 18.7-.2 34-.4 34-.3 0-6-1.6-12.8-3.6-22.2-6.3-50.5-11.3-74-12.8l-8.8-.6v47.5c0 37.2.3 47.6 1.3 47.9.6.2 6.8 2 13.7 4 37.5 10.9 62.5 23.9 80.1 41.5 16.6 16.8 24.9 38.5 24.9 65.6 0 20.3-4.4 35.9-14.5 51-18 27.1-48.5 43.7-94.4 51.4l-10.6 1.8-.3 23.1-.2 23.2h-64v-43.7l-11.2-.7c-28.9-1.7-50.8-4.2-68.8-7.7-11.4-2.3-31.6-8.1-36.1-10.5l-2.9-1.5v-33.4c0-18.4.3-33.5.6-33.5s6.3 1.8 13.2 4c31.7 9.9 63.9 15.9 94.4 17.7l10.7.6-.3-49.7c-.2-27.3-.6-49.9-.9-50.2-.2-.3-9.4-3-20.3-6-76.5-21.2-104.5-48.8-104.5-102.9 0-18.1 2.3-28.8 8.7-41.9 16.2-32.7 50.7-52.9 103.9-60.5l12-1.7.3-22.7.2-22.7h65l.2 22.2z"/><path d="M310.2 233.5c-16.6 5.3-24.9 14.3-26.7 28.7-1.5 12.4 3.1 24.5 11.7 30.9 4.6 3.4 18.5 10.3 23.1 11.4l2.7.7v-37.1c0-42.5 1.3-38.5-10.8-34.6zM385 432.6v38.6l2.8-.6c1.5-.4 5.5-2 8.9-3.6 14-6.4 20-17.7 19.1-35.4-.5-9.8-2.5-15.7-7.4-22.1-2.8-3.7-13.8-11.5-19.8-14L385 394v38.6z"/></svg>