<svg width="322" height="29" xmlns="http://www.w3.org/2000/svg">
  <g fill="#000" fill-rule="nonzero" opacity=".1">
    <circle cx="1" cy="1" r="1"/>
    <circle cx="10" cy="1" r="1"/>
    <circle cx="19" cy="1" r="1"/>
    <circle cx="28" cy="1" r="1"/>
    <circle cx="37" cy="1" r="1"/>
    <circle cx="47" cy="1" r="1"/>
    <circle cx="56" cy="1" r="1"/>
    <circle cx="65" cy="1" r="1"/>
    <circle cx="74" cy="1" r="1"/>
    <circle cx="83" cy="1" r="1"/>
    <circle cx="92" cy="1" r="1"/>
    <circle cx="101" cy="1" r="1"/>
    <circle cx="110" cy="1" r="1"/>
    <circle cx="119" cy="1" r="1"/>
    <circle cx="129" cy="1" r="1"/>
    <circle cx="139" cy="1" r="1"/>
    <circle cx="148" cy="1" r="1"/>
    <circle cx="157" cy="1" r="1"/>
    <circle cx="1" cy="10" r="1"/>
    <circle cx="10" cy="10" r="1"/>
    <circle cx="19" cy="10" r="1"/>
    <circle cx="28" cy="10" r="1"/>
    <circle cx="37" cy="10" r="1"/>
    <circle cx="47" cy="10" r="1"/>
    <circle cx="56" cy="10" r="1"/>
    <circle cx="65" cy="10" r="1"/>
    <circle cx="74" cy="10" r="1"/>
    <circle cx="83" cy="10" r="1"/>
    <circle cx="92" cy="10" r="1"/>
    <circle cx="101" cy="10" r="1"/>
    <circle cx="110" cy="10" r="1"/>
    <circle cx="119" cy="10" r="1"/>
    <circle cx="129" cy="10" r="1"/>
    <circle cx="139" cy="10" r="1"/>
    <circle cx="148" cy="10" r="1"/>
    <circle cx="157" cy="10" r="1"/>
    <circle cx="1" cy="19" r="1"/>
    <circle cx="10" cy="19" r="1"/>
    <circle cx="19" cy="19" r="1"/>
    <circle cx="28" cy="19" r="1"/>
    <circle cx="37" cy="19" r="1"/>
    <circle cx="47" cy="19" r="1"/>
    <circle cx="56" cy="19" r="1"/>
    <circle cx="65" cy="19" r="1"/>
    <circle cx="74" cy="19" r="1"/>
    <circle cx="83" cy="19" r="1"/>
    <circle cx="92" cy="19" r="1"/>
    <circle cx="101" cy="19" r="1"/>
    <circle cx="110" cy="19" r="1"/>
    <circle cx="119" cy="19" r="1"/>
    <circle cx="129" cy="19" r="1"/>
    <circle cx="139" cy="19" r="1"/>
    <circle cx="148" cy="19" r="1"/>
    <circle cx="157" cy="19" r="1"/>
    <circle cx="1" cy="28" r="1"/>
    <circle cx="10" cy="28" r="1"/>
    <circle cx="19" cy="28" r="1"/>
    <circle cx="28" cy="28" r="1"/>
    <circle cx="37" cy="28" r="1"/>
    <circle cx="47" cy="28" r="1"/>
    <circle cx="56" cy="28" r="1"/>
    <circle cx="65" cy="28" r="1"/>
    <circle cx="74" cy="28" r="1"/>
    <circle cx="83" cy="28" r="1"/>
    <circle cx="92" cy="28" r="1"/>
    <circle cx="101" cy="28" r="1"/>
    <circle cx="110" cy="28" r="1"/>
    <circle cx="119" cy="28" r="1"/>
    <circle cx="129" cy="28" r="1"/>
    <circle cx="139" cy="28" r="1"/>
    <circle cx="148" cy="28" r="1"/>
    <circle cx="157" cy="28" r="1"/>
    <circle cx="166" cy="1" r="1"/>
    <circle cx="175" cy="1" r="1"/>
    <circle cx="184" cy="1" r="1"/>
    <circle cx="193" cy="1" r="1"/>
    <circle cx="203" cy="1" r="1"/>
    <circle cx="212" cy="1" r="1"/>
    <circle cx="221" cy="1" r="1"/>
    <circle cx="230" cy="1" r="1"/>
    <circle cx="239" cy="1" r="1"/>
    <circle cx="248" cy="1" r="1"/>
    <circle cx="257" cy="1" r="1"/>
    <circle cx="266" cy="1" r="1"/>
    <circle cx="275" cy="1" r="1"/>
    <circle cx="285" cy="1" r="1"/>
    <circle cx="294" cy="1" r="1"/>
    <circle cx="303" cy="1" r="1"/>
    <circle cx="312" cy="1" r="1"/>
    <circle cx="166" cy="10" r="1"/>
    <circle cx="175" cy="10" r="1"/>
    <circle cx="184" cy="10" r="1"/>
    <circle cx="193" cy="10" r="1"/>
    <circle cx="203" cy="10" r="1"/>
    <circle cx="212" cy="10" r="1"/>
    <circle cx="221" cy="10" r="1"/>
    <circle cx="230" cy="10" r="1"/>
    <circle cx="239" cy="10" r="1"/>
    <circle cx="248" cy="10" r="1"/>
    <circle cx="257" cy="10" r="1"/>
    <circle cx="266" cy="10" r="1"/>
    <circle cx="275" cy="10" r="1"/>
    <circle cx="285" cy="10" r="1"/>
    <circle cx="294" cy="10" r="1"/>
    <circle cx="303" cy="10" r="1"/>
    <circle cx="312" cy="10" r="1"/>
    <circle cx="166" cy="19" r="1"/>
    <circle cx="175" cy="19" r="1"/>
    <circle cx="184" cy="19" r="1"/>
    <circle cx="193" cy="19" r="1"/>
    <circle cx="203" cy="19" r="1"/>
    <circle cx="212" cy="19" r="1"/>
    <circle cx="221" cy="19" r="1"/>
    <circle cx="230" cy="19" r="1"/>
    <circle cx="239" cy="19" r="1"/>
    <circle cx="248" cy="19" r="1"/>
    <circle cx="257" cy="19" r="1"/>
    <circle cx="266" cy="19" r="1"/>
    <circle cx="275" cy="19" r="1"/>
    <circle cx="285" cy="19" r="1"/>
    <circle cx="294" cy="19" r="1"/>
    <circle cx="303" cy="19" r="1"/>
    <circle cx="312" cy="19" r="1"/>
    <circle cx="166" cy="28" r="1"/>
    <circle cx="175" cy="28" r="1"/>
    <circle cx="184" cy="28" r="1"/>
    <circle cx="193" cy="28" r="1"/>
    <circle cx="203" cy="28" r="1"/>
    <circle cx="212" cy="28" r="1"/>
    <circle cx="221" cy="28" r="1"/>
    <circle cx="230" cy="28" r="1"/>
    <circle cx="239" cy="28" r="1"/>
    <circle cx="248" cy="28" r="1"/>
    <circle cx="257" cy="28" r="1"/>
    <circle cx="266" cy="28" r="1"/>
    <circle cx="275" cy="28" r="1"/>
    <circle cx="285" cy="28" r="1"/>
    <circle cx="294" cy="28" r="1"/>
    <circle cx="303" cy="28" r="1"/>
    <circle cx="312" cy="28" r="1"/>
    <circle cx="321" cy="1" r="1"/>
    <circle cx="321" cy="10" r="1"/>
    <circle cx="321" cy="19" r="1"/>
    <circle cx="321" cy="28" r="1"/>
  </g>
</svg>
